#tb 0: 1/25
#media_type 0: video
#codec_id 0: rawvideo
#dimensions 0: 1056x8440
#sar 0: 0/1
0,          0,          0,        1, 13368960, 0x830b3a1d
0,          1,          1,        1, 13368960, 0x120ca009
0,          2,          2,        1, 13368960, 0xc94e0d86
0,          3,          3,        1, 13368960, 0x3e97d237
0,          4,          4,        1, 13368960, 0x1caaa873
0,          5,          5,        1, 13368960, 0xc6af86c6
0,          6,          6,        1, 13368960, 0x277ee61a
0,          7,          7,        1, 13368960, 0x7832ef4e
0,          8,          8,        1, 13368960, 0x328142e9
0,          9,          9,        1, 13368960, 0xbe22f686
0,         10,         10,        1, 13368960, 0x9c4bc207
0,         11,         11,        1, 13368960, 0x3c5ed3a8
0,         12,         12,        1, 13368960, 0x2bbad24b
0,         13,         13,        1, 13368960, 0x1673c4d9
0,         14,         14,        1, 13368960, 0x2091113f
0,         15,         15,        1, 13368960, 0xcf6d4fbc
0,         16,         16,        1, 13368960, 0xd6568883
0,         17,         17,        1, 13368960, 0xb28f6a46
0,         18,         18,        1, 13368960, 0x2194e8aa
0,         19,         19,        1, 13368960, 0xcf9c48ce
0,         20,         20,        1, 13368960, 0xfc38b71e
0,         21,         21,        1, 13368960, 0x95497860
0,         22,         22,        1, 13368960, 0x18d43b46
0,         23,         23,        1, 13368960, 0xb9e03612
0,         24,         24,        1, 13368960, 0x0df619fa
0,         25,         25,        1, 13368960, 0x941c823f
0,         26,         26,        1, 13368960, 0x4df9ed34
0,         27,         27,        1, 13368960, 0x6f09aec5
0,         28,         28,        1, 13368960, 0x03dfcbb1
0,         29,         29,        1, 13368960, 0x4a64c338
0,         30,         30,        1, 13368960, 0xd33cf17a
0,         31,         31,        1, 13368960, 0xc1a38b1b
0,         32,         32,        1, 13368960, 0x38571158
0,         33,         33,        1, 13368960, 0x1979e549
0,         34,         34,        1, 13368960, 0x0c1f42e6
0,         35,         35,        1, 13368960, 0x589267c1
0,         36,         36,        1, 13368960, 0x77643e84
0,         37,         37,        1, 13368960, 0x0b91e89c
0,         38,         38,        1, 13368960, 0x5a627dc6
0,         39,         39,        1, 13368960, 0xb1576053
0,         40,         40,        1, 13368960, 0x9adbc4a1
0,         41,         41,        1, 13368960, 0x4f6b0f4f
0,         42,         42,        1, 13368960, 0x70bb7560
0,         43,         43,        1, 13368960, 0x8c5de89e
0,         44,         44,        1, 13368960, 0x3268ad70
0,         45,         45,        1, 13368960, 0xef3caed4
0,         46,         46,        1, 13368960, 0x71f817b9
0,         47,         47,        1, 13368960, 0x645da999
0,         48,         48,        1, 13368960, 0x928ecfad
0,         49,         49,        1, 13368960, 0xb0d92ec8
0,         50,         50,        1, 13368960, 0x165927df
0,         51,         51,        1, 13368960, 0x08fffeed
0,         52,         52,        1, 13368960, 0xae5b6e67
0,         53,         53,        1, 13368960, 0x9865c501
0,         54,         54,        1, 13368960, 0x7ffe38dd
0,         55,         55,        1, 13368960, 0x27494a3d
0,         56,         56,        1, 13368960, 0x4bd65d63
0,         57,         57,        1, 13368960, 0x740c1991
0,         58,         58,        1, 13368960, 0xc4dd13a5
0,         59,         59,        1, 13368960, 0xda00e57e
0,         60,         60,        1, 13368960, 0x49dd07ed
0,         61,         61,        1, 13368960, 0x0abd3d38
0,         62,         62,        1, 13368960, 0x5e4dd6c1
0,         63,         63,        1, 13368960, 0x8003709b
0,         64,         64,        1, 13368960, 0xc6890279
0,         65,         65,        1, 13368960, 0x19873cc1
0,         66,         66,        1, 13368960, 0x4b200ba0
0,         67,         67,        1, 13368960, 0x4a1cd324
0,         68,         68,        1, 13368960, 0x0c3067bd
0,         69,         69,        1, 13368960, 0x8aaa7653
0,         70,         70,        1, 13368960, 0xf80e0b5b
0,         71,         71,        1, 13368960, 0x8b3994a7
0,         72,         72,        1, 13368960, 0x9283add5
0,         73,         73,        1, 13368960, 0x84c65370
0,         74,         74,        1, 13368960, 0x861eb66f
0,         75,         75,        1, 13368960, 0x861eb66f
0,         76,         76,        1, 13368960, 0xb345c45f
0,         77,         77,        1, 13368960, 0xb345c45f
0,         78,         78,        1, 13368960, 0x610a4127
0,         79,         79,        1, 13368960, 0x80243f40
0,         80,         80,        1, 13368960, 0xf4759cb7
0,         81,         81,        1, 13368960, 0x6590bcb9
0,         82,         82,        1, 13368960, 0xccda37ba
0,         83,         83,        1, 13368960, 0x63753eb2
0,         84,         84,        1, 13368960, 0x6c9f0d49
0,         85,         85,        1, 13368960, 0x65c8760b
0,         86,         86,        1, 13368960, 0xf67331ae
0,         87,         87,        1, 13368960, 0xf67331ae
0,         88,         88,        1, 13368960, 0x04e4f2cf
0,         89,         89,        1, 13368960, 0xce3bf739
0,         90,         90,        1, 13368960, 0x37dfaf28
0,         91,         91,        1, 13368960, 0x66439ac4
0,         92,         92,        1, 13368960, 0xfccfa1bc
0,         93,         93,        1, 13368960, 0x5bdfc263
0,         94,         94,        1, 13368960, 0x65c4c237
0,         95,         95,        1, 13368960, 0x17aad32b
0,         96,         96,        1, 13368960, 0xa8dba25c
0,         97,         97,        1, 13368960, 0x26c6fc9d
0,         98,         98,        1, 13368960, 0x7e8b4357
0,         99,         99,        1, 13368960, 0x1bb60730
0,        100,        100,        1, 13368960, 0x7fa37b25
0,        101,        101,        1, 13368960, 0xacc7fcf2
0,        102,        102,        1, 13368960, 0x06a9f637
0,        103,        103,        1, 13368960, 0x06a9f637
0,        104,        104,        1, 13368960, 0xd875e692
0,        105,        105,        1, 13368960, 0x6e4b9e1d
0,        106,        106,        1, 13368960, 0x58cb3e45
0,        107,        107,        1, 13368960, 0x9c5daea2
0,        108,        108,        1, 13368960, 0x78d01454
0,        109,        109,        1, 13368960, 0xd2122531
0,        110,        110,        1, 13368960, 0xaf115288
0,        111,        111,        1, 13368960, 0x17b09d6e
0,        112,        112,        1, 13368960, 0xc7335c78
0,        113,        113,        1, 13368960, 0x028bf70c
0,        114,        114,        1, 13368960, 0x84c9f7ef
0,        115,        115,        1, 13368960, 0x7151bb7d
0,        116,        116,        1, 13368960, 0xe5a88164
0,        117,        117,        1, 13368960, 0xd5e4e381
0,        118,        118,        1, 13368960, 0xdb3be595
0,        119,        119,        1, 13368960, 0x068a5b66
0,        120,        120,        1, 13368960, 0x0eab39c8
0,        121,        121,        1, 13368960, 0x0dc56563
0,        122,        122,        1, 13368960, 0xbbf98dd0
0,        123,        123,        1, 13368960, 0x5a487c5c
0,        124,        124,        1, 13368960, 0xd33dc8a8
0,        125,        125,        1, 13368960, 0x8527158b
0,        126,        126,        1, 13368960, 0x20f2321a
0,        127,        127,        1, 13368960, 0x2609d883
0,        128,        128,        1, 13368960, 0x69b89df1
0,        129,        129,        1, 13368960, 0x74d5246b
0,        130,        130,        1, 13368960, 0x873e0eeb
0,        131,        131,        1, 13368960, 0x90405f59
0,        132,        132,        1, 13368960, 0x93125fd2
0,        133,        133,        1, 13368960, 0xcbe963c1
0,        134,        134,        1, 13368960, 0xe79c6347
0,        135,        135,        1, 13368960, 0x6ffbf0fb
0,        136,        136,        1, 13368960, 0x3ed97d05
0,        137,        137,        1, 13368960, 0x724221bc
0,        138,        138,        1, 13368960, 0x5c1baa66
0,        139,        139,        1, 13368960, 0x5c1baa66
0,        140,        140,        1, 13368960, 0xbd3690df
0,        141,        141,        1, 13368960, 0x52a5947d
0,        142,        142,        1, 13368960, 0xd73732c8
0,        143,        143,        1, 13368960, 0x4356196a
0,        144,        144,        1, 13368960, 0xef7e1e3f
0,        145,        145,        1, 13368960, 0xa3d76323
0,        146,        146,        1, 13368960, 0x01751d58
0,        147,        147,        1, 13368960, 0xd0ef9115
0,        148,        148,        1, 13368960, 0x2e09d119
0,        149,        149,        1, 13368960, 0x09d7a785
0,        150,        150,        1, 13368960, 0xb93189a9
0,        151,        151,        1, 13368960, 0xd8277b99
0,        152,        152,        1, 13368960, 0xf3b8766a
0,        153,        153,        1, 13368960, 0x782e9fa1
0,        154,        154,        1, 13368960, 0x36d4601e
0,        155,        155,        1, 13368960, 0x86f70f8c
0,        156,        156,        1, 13368960, 0xcc7f2c1d
0,        157,        157,        1, 13368960, 0xe83641fc
0,        158,        158,        1, 13368960, 0x1d81af8a
0,        159,        159,        1, 13368960, 0x83c2fe6c
0,        160,        160,        1, 13368960, 0x3e324390
0,        161,        161,        1, 13368960, 0xd00235b3
0,        162,        162,        1, 13368960, 0xd1e8873a
0,        163,        163,        1, 13368960, 0x7d8f603a
0,        164,        164,        1, 13368960, 0x76107866
0,        165,        165,        1, 13368960, 0x79f71d19
0,        166,        166,        1, 13368960, 0x5ae7b71d
0,        167,        167,        1, 13368960, 0xeb0acd6e
0,        168,        168,        1, 13368960, 0x3400e989
0,        169,        169,        1, 13368960, 0xaa5f7ae6
0,        170,        170,        1, 13368960, 0xfc294222
0,        171,        171,        1, 13368960, 0xc95000e2
0,        172,        172,        1, 13368960, 0x8525afaf
0,        173,        173,        1, 13368960, 0x02e87e93
0,        174,        174,        1, 13368960, 0x84de93e2
0,        175,        175,        1, 13368960, 0xc96984ed
0,        176,        176,        1, 13368960, 0xf2bba506
0,        177,        177,        1, 13368960, 0x580a43bd
0,        178,        178,        1, 13368960, 0xa0768ffe
0,        179,        179,        1, 13368960, 0x6438a4e6
0,        180,        180,        1, 13368960, 0x93be17fb
0,        181,        181,        1, 13368960, 0x3ae701f8
0,        182,        182,        1, 13368960, 0xdd915885
0,        183,        183,        1, 13368960, 0x72fd266b
0,        184,        184,        1, 13368960, 0xb4278a8e
0,        185,        185,        1, 13368960, 0x3c48692b
0,        186,        186,        1, 13368960, 0x44dced17
0,        187,        187,        1, 13368960, 0x75091091
0,        188,        188,        1, 13368960, 0x5c3e2aeb
0,        189,        189,        1, 13368960, 0xb867b21b
0,        190,        190,        1, 13368960, 0x4c54d3df
0,        191,        191,        1, 13368960, 0x513a925d
0,        192,        192,        1, 13368960, 0x1413cd87
0,        193,        193,        1, 13368960, 0x1413cd87
0,        194,        194,        1, 13368960, 0x3d18513f
0,        195,        195,        1, 13368960, 0x3d18513f
0,        196,        196,        1, 13368960, 0x97666d1f
0,        197,        197,        1, 13368960, 0xc650d2fb
0,        198,        198,        1, 13368960, 0x506d7298
0,        199,        199,        1, 13368960, 0x727835f3
0,        200,        200,        1, 13368960, 0xbd01cccf
0,        201,        201,        1, 13368960, 0x9903d82f
0,        202,        202,        1, 13368960, 0x365cccf3
0,        203,        203,        1, 13368960, 0x6fe5fa0e
0,        204,        204,        1, 13368960, 0x365cccf3
0,        205,        205,        1, 13368960, 0x6f3bbbe8
0,        206,        206,        1, 13368960, 0x15e1563c
0,        207,        207,        1, 13368960, 0x92b7c586
0,        208,        208,        1, 13368960, 0x06303a2b
0,        209,        209,        1, 13368960, 0x6821a67f
0,        210,        210,        1, 13368960, 0x53dcf376
0,        211,        211,        1, 13368960, 0x853cca77
0,        212,        212,        1, 13368960, 0x4990374c
0,        213,        213,        1, 13368960, 0x96a45ba2
0,        214,        214,        1, 13368960, 0x33119f81
0,        215,        215,        1, 13368960, 0x98bcd5cd
0,        216,        216,        1, 13368960, 0xfe96fda5
0,        217,        217,        1, 13368960, 0xf299be0f
0,        218,        218,        1, 13368960, 0xa986733f
0,        219,        219,        1, 13368960, 0xe95f90f7
0,        220,        220,        1, 13368960, 0xbc388307
0,        221,        221,        1, 13368960, 0x9f85ff25
0,        222,        222,        1, 13368960, 0xec8200e0
0,        223,        223,        1, 13368960, 0x508b9054
0,        224,        224,        1, 13368960, 0x96a4975f
0,        225,        225,        1, 13368960, 0xe583cf82
0,        226,        226,        1, 13368960, 0xdb930543
0,        227,        227,        1, 13368960, 0x4359caa5
0,        228,        228,        1, 13368960, 0x6eb2243b
0,        229,        229,        1, 13368960, 0xb0b2afd0
0,        230,        230,        1, 13368960, 0x6b546e73
0,        231,        231,        1, 13368960, 0x9e3d3798
0,        232,        232,        1, 13368960, 0xb5c6fd40
0,        233,        233,        1, 13368960, 0x61ca65a9
0,        234,        234,        1, 13368960, 0x01c5eb8d
0,        235,        235,        1, 13368960, 0x02b9f965
0,        236,        236,        1, 13368960, 0xf8250f5f
0,        237,        237,        1, 13368960, 0x29ca8680
0,        238,        238,        1, 13368960, 0x22788402
0,        239,        239,        1, 13368960, 0xa48697c6
0,        240,        240,        1, 13368960, 0x20edbbbf
0,        241,        241,        1, 13368960, 0x83202f92
0,        242,        242,        1, 13368960, 0x39753c63
0,        243,        243,        1, 13368960, 0xe53b2010
0,        244,        244,        1, 13368960, 0x8f4de71d
0,        245,        245,        1, 13368960, 0x6258a840
0,        246,        246,        1, 13368960, 0xe6bb63fa
0,        247,        247,        1, 13368960, 0xe402b0fa
0,        248,        248,        1, 13368960, 0x2fb45d78
0,        249,        249,        1, 13368960, 0xf1615865
0,        250,        250,        1, 13368960, 0xf7b27d57
0,        251,        251,        1, 13368960, 0x8acff7a0
0,        252,        252,        1, 13368960, 0x9a07f770
0,        253,        253,        1, 13368960, 0xd78ebcec
0,        254,        254,        1, 13368960, 0x9ab52d9c
0,        255,        255,        1, 13368960, 0xd27494dd
0,        256,        256,        1, 13368960, 0xc8e60814
0,        257,        257,        1, 13368960, 0xa1225c85
0,        258,        258,        1, 13368960, 0x94386aec
0,        259,        259,        1, 13368960, 0x98352e63
0,        260,        260,        1, 13368960, 0x1e469945
0,        261,        261,        1, 13368960, 0xf646569c
0,        262,        262,        1, 13368960, 0x9831b297
0,        263,        263,        1, 13368960, 0x37e38119
0,        264,        264,        1, 13368960, 0xebe37433
0,        265,        265,        1, 13368960, 0xa1b5c8e1
